<svg width="240" height="240" viewBox="0 0 240 240" fill="none" xmlns="http://www.w3.org/2000/svg">
<path d="M219.24 68.2436C197.036 46.0561 163.765 41.6725 137.181 55.0811C136.125 55.6144 135.146 54.249 135.984 53.4109L166.786 22.632C167.841 21.5771 167.789 19.86 166.692 18.8403C138.893 -6.89873 95.4591 -6.2658 68.4286 20.7449C45.9608 43.1962 41.7441 76.9581 55.749 103.67C56.3062 104.731 54.9338 105.733 54.0893 104.889L22.6485 73.4712C21.5929 72.4163 19.8745 72.469 18.8541 73.5649C-6.90379 101.349 -6.2704 144.746 20.7601 171.756C42.9639 193.944 76.2345 198.328 102.819 184.919C103.875 184.386 104.854 185.751 104.016 186.589L73.2142 217.368C72.1585 218.423 72.2113 220.14 73.308 221.16C101.113 246.899 144.541 246.266 171.571 219.255C194.039 196.804 198.256 163.042 184.251 136.33C183.694 135.269 185.066 134.267 185.911 135.111L217.351 166.529C218.407 167.584 220.125 167.531 221.146 166.435C246.904 138.657 246.27 95.2543 219.24 68.2436ZM166.539 121.275C151.919 127.141 127.146 151.895 121.276 166.505C120.818 167.648 119.182 167.648 118.724 166.505C112.854 151.895 88.0813 127.141 73.4605 121.275C72.3169 120.818 72.3169 119.182 73.4605 118.725C88.0813 112.859 112.854 88.1046 118.724 73.4946C119.182 72.3518 120.818 72.3518 121.276 73.4946C127.146 88.1046 151.919 112.859 166.539 118.725C167.683 119.182 167.683 120.818 166.539 121.275Z" fill="#261C0A"/>
</svg>
