<svg width="520" height="520" viewBox="0 0 520 520" fill="none" xmlns="http://www.w3.org/2000/svg">
<path d="M163.333 438.889C174.379 438.889 183.333 447.843 183.333 458.889V470C183.333 481.046 174.379 490 163.333 490H152.223C141.177 490 132.223 481.046 132.223 470V458.889C132.223 447.843 141.177 438.889 152.223 438.889H163.333ZM265.556 438.889C276.601 438.889 285.556 447.843 285.556 458.889V470C285.556 481.046 276.601 490 265.556 490H254.444C243.399 490 234.444 481.046 234.444 470V458.889C234.444 447.843 243.399 438.889 254.444 438.889H265.556ZM367.777 438.889C378.823 438.889 387.777 447.843 387.777 458.889V470C387.777 481.046 378.823 490 367.777 490H356.667C345.621 490 336.667 481.046 336.667 470V458.889C336.667 447.843 345.621 438.889 356.667 438.889H367.777ZM343.333 106.667C381.993 106.667 413.333 138.007 413.333 176.667V343.333C413.333 381.993 381.993 413.333 343.333 413.333H176.667C138.007 413.333 106.667 381.993 106.667 343.333V176.667C106.667 138.007 138.007 106.667 176.667 106.667H343.333ZM61.1113 336.667C72.1569 336.667 81.1113 345.621 81.1113 356.667V367.777C81.1113 378.823 72.1569 387.777 61.1113 387.777H50C38.9543 387.777 30 378.823 30 367.777V356.667C30 345.621 38.9543 336.667 50 336.667H61.1113ZM470 336.667C481.046 336.667 490 345.621 490 356.667V367.777C490 378.823 481.046 387.777 470 387.777H458.889C447.843 387.777 438.889 378.823 438.889 367.777V356.667C438.889 345.621 447.843 336.667 458.889 336.667H470ZM213.657 183.728V284.466C213.611 289.503 212.817 293.747 211.278 297.198C209.786 300.649 207.594 303.261 204.702 305.033C201.811 306.759 198.289 307.622 194.139 307.622C190.314 307.622 186.933 306.875 183.995 305.383C181.057 303.89 178.748 301.745 177.069 298.947C175.437 296.149 174.597 292.814 174.551 288.943H148.736C148.736 297.758 150.695 305.127 154.612 311.05C158.53 316.973 163.824 321.45 170.493 324.481C177.209 327.466 184.764 328.959 193.159 328.959C202.347 328.959 210.392 327.186 217.295 323.642C224.244 320.051 229.654 314.944 233.524 308.321C237.395 301.652 239.355 293.7 239.401 284.466V183.728H213.657ZM261.649 183.728V327H319.644C330.604 327 339.698 325.297 346.927 321.893C354.156 318.488 359.566 313.848 363.157 307.972C366.748 302.049 368.544 295.379 368.544 287.964C368.544 280.688 367.051 274.485 364.066 269.354C361.082 264.224 357.234 260.26 352.523 257.462C347.86 254.617 342.986 253.055 337.902 252.775V251.376C342.566 250.257 346.787 248.415 350.564 245.85C354.342 243.285 357.35 239.95 359.589 235.846C361.828 231.695 362.947 226.704 362.947 220.874C362.947 213.785 361.222 207.442 357.771 201.846C354.366 196.249 349.212 191.842 342.31 188.624C335.454 185.359 326.849 183.728 316.495 183.728H261.649ZM316.216 263.339C321.579 263.339 326.196 264.341 330.067 266.347C333.938 268.305 336.923 271.011 339.021 274.462C341.12 277.866 342.17 281.691 342.17 285.935C342.17 291.624 340.071 296.289 335.874 299.927C331.723 303.518 324.937 305.313 315.517 305.313H287.604V263.339H316.216ZM61.1113 234.444C72.1569 234.444 81.1113 243.399 81.1113 254.444V265.556C81.1113 276.601 72.1569 285.556 61.1113 285.556H50C38.9544 285.556 30.0001 276.601 30 265.556V254.444C30.0001 243.399 38.9543 234.444 50 234.444H61.1113ZM470 234.444C481.046 234.444 490 243.399 490 254.444V265.556C490 276.601 481.046 285.556 470 285.556H458.889C447.843 285.556 438.889 276.601 438.889 265.556V254.444C438.889 243.399 447.843 234.444 458.889 234.444H470ZM313.837 205.134C321.485 205.134 327.245 206.93 331.116 210.521C335.034 214.112 336.993 218.682 336.993 224.232C336.993 228.43 335.943 232.067 333.845 235.146C331.793 238.177 328.971 240.533 325.38 242.212C321.789 243.844 317.754 244.66 313.277 244.66H287.604V205.134H313.837ZM61.1113 132.223C72.1569 132.223 81.1113 141.177 81.1113 152.223V163.333C81.1113 174.379 72.1569 183.333 61.1113 183.333H50C38.9543 183.333 30 174.379 30 163.333V152.223C30 141.177 38.9543 132.223 50 132.223H61.1113ZM470 132.223C481.046 132.223 490 141.177 490 152.223V163.333C490 174.379 481.046 183.333 470 183.333H458.889C447.843 183.333 438.889 174.379 438.889 163.333V152.223C438.889 141.177 447.843 132.223 458.889 132.223H470ZM163.333 30C174.379 30 183.333 38.9543 183.333 50V61.1113C183.333 72.1569 174.379 81.1113 163.333 81.1113H152.223C141.177 81.1113 132.223 72.1569 132.223 61.1113V50C132.223 38.9543 141.177 30 152.223 30H163.333ZM265.556 30C276.601 30.0001 285.556 38.9543 285.556 50V61.1113C285.556 72.1569 276.601 81.1113 265.556 81.1113H254.444C243.399 81.1113 234.444 72.1569 234.444 61.1113V50C234.444 38.9543 243.399 30.0001 254.444 30H265.556ZM367.777 30C378.823 30 387.777 38.9543 387.777 50V61.1113C387.777 72.1569 378.823 81.1113 367.777 81.1113H356.667C345.621 81.1113 336.667 72.1569 336.667 61.1113V50C336.667 38.9543 345.621 30 356.667 30H367.777Z" fill="black"/>
</svg>
