<svg width="160" height="160" viewBox="0 0 160 160" fill="none" xmlns="http://www.w3.org/2000/svg">
<g clip-path="url(#clip0_21216_429)">
<path d="M47.105 18.7403C52.9018 14.3502 59.9784 11.9824 67.25 11.9998C69.7613 11.9435 72.2462 12.5216 74.4749 13.6805C76.7035 14.8393 78.6038 16.5416 80 18.6298C81.3962 16.5416 83.2965 14.8393 85.5251 13.6805C87.7538 12.5216 90.2387 11.9435 92.75 11.9998C100.022 11.9824 107.098 14.3502 112.895 18.7403C117.357 22.2083 120.8 27.0108 122.015 32.8163C124.803 33.0288 127.353 34.1848 129.495 35.9273C132.742 38.5623 135.106 42.5148 136.593 46.6968C138.922 53.1993 139.551 61.4869 137.137 68.5419C137.749 68.8309 138.353 69.1708 138.939 69.5618C141.277 71.1173 143.053 73.3443 144.362 75.9708C146.938 81.1133 148 88.2873 148 96.9998C148 106.698 144.303 113.209 139.611 117.23C137.016 119.455 133.954 121.067 130.651 121.947C129.801 126.69 127.422 132.181 123.69 136.839C118.845 142.917 111.331 148 101.25 148C93.26 148 86.902 143.58 82.771 139.245C81.7834 138.21 80.8581 137.117 80 135.972C79.142 137.117 78.2167 138.21 77.229 139.245C73.098 143.58 66.7485 148 58.75 148C48.669 148 41.1635 142.917 36.31 136.839C32.823 132.509 30.4346 127.4 29.3485 121.947C26.0461 121.067 22.9841 119.455 20.3895 117.23C15.6975 113.209 12 106.69 12 96.9998C12 88.2873 13.071 81.1048 15.638 75.9708C16.8546 73.395 18.7242 71.1826 21.061 69.5533C21.6351 69.1733 22.2375 68.838 22.863 68.5503C20.449 61.4783 21.078 53.1993 23.407 46.6968C24.8945 42.5148 27.2575 38.5623 30.5045 35.9273C32.6465 34.1848 35.1965 33.0373 37.9845 32.8163C39.2085 27.0108 42.6425 22.2083 47.105 18.7403ZM75.75 33.2498V33.1648L75.733 32.7398C75.6079 30.5239 75.1671 28.3372 74.424 26.2458C73.895 24.6671 72.9942 23.2386 71.7975 22.0808C70.542 20.9876 68.9129 20.4212 67.25 20.4998C61.869 20.4814 56.6288 22.2182 52.324 25.4468C48.38 28.5153 46 32.6718 46 37.4998C45.9995 38.1729 45.8391 38.8362 45.5321 39.4352C45.2251 40.0342 44.7802 40.5516 44.2341 40.945C43.688 41.3384 43.0563 41.5965 42.3909 41.698C41.7255 41.7995 41.0456 41.7415 40.407 41.5288C38.809 41.0018 37.381 41.2993 35.8595 42.5233C34.1935 43.8833 32.57 46.2973 31.4055 49.5528C29.034 56.1998 29.2805 64.2493 32.536 69.1453C33.0009 69.8426 33.2493 70.6618 33.25 71.4998H39.625C44.6973 71.4998 49.5618 73.5148 53.1484 77.1014C56.735 80.6881 58.75 85.5526 58.75 90.6248V93.4723C61.5857 94.4749 63.9756 96.4476 65.4974 99.0419C67.0193 101.636 67.575 104.685 67.0664 107.649C66.5578 110.614 65.0176 113.303 62.7181 115.241C60.4185 117.18 57.5077 118.243 54.5 118.243C51.4923 118.243 48.5815 117.18 46.2819 115.241C43.9824 113.303 42.4422 110.614 41.9336 107.649C41.425 104.685 41.9807 101.636 43.5026 99.0419C45.0244 96.4476 47.4143 94.4749 50.25 93.4723V90.6248C50.25 84.7598 45.49 79.9998 39.625 79.9998H24.75C24.2419 79.999 23.738 79.9069 23.2625 79.7279L23.237 79.7788C21.554 83.1363 20.5 88.7123 20.5 96.9998C20.5 104.301 23.1775 108.415 25.923 110.77C28.8725 113.303 32.145 114 33.25 114C34.3772 114 35.4582 114.448 36.2552 115.245C37.0522 116.042 37.5 117.123 37.5 118.25C37.5 121.378 39.2 126.843 42.94 131.535C46.5865 136.083 51.831 139.5 58.75 139.5C63.51 139.5 67.777 136.839 71.075 133.38C72.6985 131.68 73.965 129.92 74.7895 128.475C75.1648 127.835 75.4861 127.164 75.75 126.469V58.7498H66.5275C65.5249 61.5855 63.5522 63.9755 60.958 65.4973C58.3637 67.0191 55.315 67.5748 52.3506 67.0662C49.3863 66.5576 46.6972 65.0174 44.7586 62.7179C42.82 60.4184 41.7567 57.5075 41.7567 54.4998C41.7567 51.4922 42.82 48.5813 44.7586 46.2818C46.6972 43.9823 49.3863 42.4421 52.3506 41.9335C55.315 41.4249 58.3637 41.9806 60.958 43.5024C63.5522 45.0242 65.5249 47.4142 66.5275 50.2498H75.75V33.2498ZM84.25 118.241V126.461C84.514 127.155 84.8352 127.826 85.2105 128.467C86.0435 129.912 87.3015 131.671 88.9165 133.371C92.223 136.831 96.4985 139.491 101.25 139.491C108.169 139.491 113.413 136.074 117.06 131.527C120.8 126.835 122.5 121.369 122.5 118.241C122.5 117.114 122.948 116.033 123.745 115.236C124.542 114.439 125.623 113.991 126.75 113.991C127.855 113.991 131.127 113.294 134.077 110.761C136.822 108.407 139.5 104.293 139.5 96.9913C139.5 88.7038 138.437 83.1363 136.763 79.7703C136.203 78.517 135.324 77.4325 134.213 76.6253C133.256 76.0135 132.135 75.7081 131 75.7498C130.231 75.7494 129.477 75.5405 128.818 75.1454C128.158 74.7502 127.618 74.1836 127.255 73.5059C126.893 72.8281 126.72 72.0647 126.757 71.2968C126.794 70.5289 127.038 69.7853 127.464 69.1453C130.728 64.2493 130.966 56.1998 128.595 49.5528C127.43 46.2973 125.806 43.8748 124.14 42.5233C122.619 41.2993 121.191 40.9933 119.593 41.5288C118.954 41.7415 118.274 41.7995 117.609 41.698C116.944 41.5965 116.312 41.3384 115.766 40.945C115.22 40.5516 114.775 40.0342 114.468 39.4352C114.161 38.8362 114.001 38.1729 114 37.4998C114 32.6718 111.62 28.5153 107.668 25.4468C103.365 22.22 98.1281 20.4832 92.75 20.4998C91.0871 20.4212 89.458 20.9876 88.2025 22.0808C87.0022 23.2373 86.0984 24.6659 85.5675 26.2458C84.7583 28.4661 84.3134 30.8026 84.25 33.1648V109.75H90.625C96.49 109.75 101.25 104.99 101.25 99.1248V83.5273C98.4143 82.5248 96.0244 80.5521 94.5026 77.9578C92.9807 75.3636 92.425 72.3148 92.9336 69.3505C93.4422 66.3861 94.9824 63.697 97.2819 61.7584C99.5815 59.8198 102.492 58.7565 105.5 58.7565C108.508 58.7565 111.419 59.8198 113.718 61.7584C116.018 63.697 117.558 66.3861 118.066 69.3505C118.575 72.3148 118.019 75.3636 116.497 77.9578C114.976 80.5521 112.586 82.5248 109.75 83.5273V99.1248C109.75 104.197 107.735 109.062 104.148 112.648C100.562 116.235 95.6973 118.25 90.625 118.25H84.25V118.241ZM50.25 54.4998C50.25 55.627 50.6978 56.708 51.4948 57.505C52.2918 58.3021 53.3728 58.7498 54.5 58.7498C55.6272 58.7498 56.7082 58.3021 57.5052 57.505C58.3022 56.708 58.75 55.627 58.75 54.4998C58.75 53.3727 58.3022 52.2917 57.5052 51.4946C56.7082 50.6976 55.6272 50.2498 54.5 50.2498C53.3728 50.2498 52.2918 50.6976 51.4948 51.4946C50.6978 52.2917 50.25 53.3727 50.25 54.4998ZM105.5 75.7498C106.627 75.7498 107.708 75.3021 108.505 74.5051C109.302 73.708 109.75 72.627 109.75 71.4998C109.75 70.3727 109.302 69.2917 108.505 68.4946C107.708 67.6976 106.627 67.2498 105.5 67.2498C104.373 67.2498 103.292 67.6976 102.495 68.4946C101.698 69.2917 101.25 70.3727 101.25 71.4998C101.25 72.627 101.698 73.708 102.495 74.5051C103.292 75.3021 104.373 75.7498 105.5 75.7498ZM54.5 101.25C53.3728 101.25 52.2918 101.698 51.4948 102.495C50.6978 103.292 50.25 104.373 50.25 105.5C50.25 106.627 50.6978 107.708 51.4948 108.505C52.2918 109.302 53.3728 109.75 54.5 109.75C55.6272 109.75 56.7082 109.302 57.5052 108.505C58.3022 107.708 58.75 106.627 58.75 105.5C58.75 104.373 58.3022 103.292 57.5052 102.495C56.7082 101.698 55.6272 101.25 54.5 101.25Z" fill="black"/>
</g>
<defs>
<clipPath id="clip0_21216_429">
<rect width="160" height="160" fill="white"/>
</clipPath>
</defs>
</svg>
