<svg width="159" height="159" viewBox="0 0 159 159" fill="none" xmlns="http://www.w3.org/2000/svg">
<g clip-path="url(#clip0_20306_175)">
<path d="M130.241 78.0797C130.872 76.1859 131.188 74.1344 131.188 71.925C131.188 57.8797 119.835 46.5172 105.803 46.5172C102.807 46.5172 99.654 47.1484 96.9737 48.0953C90.667 36.7328 78.6843 29 64.8095 29C45.2588 29 29.3344 44.9391 29.3344 64.6656C29.3344 66.875 29.6497 69.2422 29.965 71.4516C20.1897 73.0297 12.7793 81.2359 12.7793 91.3359C12.7793 98.7531 16.4056 104.908 22.2393 108.538C27.127 105.697 32.9607 103.645 39.4251 101.752C39.4251 101.752 32.0147 76.5016 40.6864 74.7656C51.0925 72.8719 51.7231 75.7125 72.8506 73.5031C95.5547 71.1359 115.263 74.7656 115.263 74.7656C119.205 74.7656 118.889 83.1297 118.259 89.1266C117.628 95.2812 115.421 100.805 115.421 100.805C123.462 103.014 130.399 105.697 136.233 109.169C141.121 106.17 144.274 100.805 144.274 95.1234C144.905 86.1281 138.44 79.0266 130.241 78.0797Z" fill="currentColor"/>
<path d="M79 115.323C108.484 115.323 134.814 119.269 152 130C140.963 115.323 112.425 104.75 79 104.75C45.5745 104.75 17.0367 115.008 6 129.684C23.1857 119.269 49.5162 115.323 79 115.323Z" fill="currentColor"/>
</g>
<defs>
<clipPath id="clip0_20306_175">
<rect width="146" height="101" fill="white" transform="translate(6 29)"/>
</clipPath>
</defs>
</svg>
