<svg width="159" height="159" viewBox="0 0 159 159" fill="none" xmlns="http://www.w3.org/2000/svg">
<g clip-path="url(#clip0_20306_169)">
<path d="M155.895 82.2505C155.355 78.5735 151.077 78.3574 148.245 78.2098C148.245 78.2098 136.56 77.8848 135.327 77.8286C134.242 77.7811 132.982 77.565 132.857 76.3194C132.729 75.0158 133.871 74.4115 134.907 74.1848C136.984 73.7333 139.057 73.6947 141.115 73.6947C145.638 73.6947 149.801 74.2059 154.195 75.0316L154.675 71.4055V71.3791C151.363 70.7502 146.779 70 141.889 70C139.748 69.9902 137.609 70.1234 135.486 70.3988C133.173 70.7115 130.64 71.2579 129.396 72.9322C128.341 74.3553 128.233 76.7586 128.872 78.3978C129.972 81.2175 133.865 81.3264 136.292 81.4389C136.292 81.4389 148.046 81.7903 149.292 81.8412C150.376 81.8904 151.638 82.1135 151.761 83.396C151.872 84.5432 151.129 85.3725 149.596 85.701C147.59 86.1314 145.474 86.1894 143.418 86.1894C138.42 86.1894 134.006 85.6518 128.932 84.8419L128.517 88.5049C133.172 89.4687 137.906 89.9694 142.654 90H142.724C144.878 90 147.052 90 149.191 89.6838C151.07 89.4044 153.053 88.981 154.537 87.6511C156.021 86.3212 156.165 84.0882 155.895 82.2505Z" fill="currentColor"/>
<path d="M18.6499 85.0755L6.96355 70.1353H2V89.8735H6.38965V76.1894L16.1255 88.6261C17.4919 90.383 19.8114 90.383 21.1915 88.6261L30.9188 76.1894V89.8735H35.3067V70.1353H30.3363L18.6499 85.0755Z" fill="currentColor"/>
<path d="M72.0227 70.1353H46.4961V89.8735H72.2362L72.8818 85.8819H50.8857V82.001H71.1516V78.0077H50.8857V74.1268H72.0227V70.1353Z" fill="currentColor"/>
<path d="M114.388 89.8683L122.385 70.1354H117.853L111.725 85.2443L104.503 71.9326C104.184 71.3623 103.725 70.8885 103.171 70.5591C102.617 70.2296 101.988 70.0562 101.349 70.0562C100.709 70.0562 100.08 70.2296 99.5265 70.5591C98.9727 70.8885 98.5131 71.3623 98.1939 71.9326L90.9707 85.239L84.8388 70.1354H80.3125L88.3181 89.8683H92.9759L101.345 74.2991L109.715 89.8683H114.388Z" fill="currentColor"/>
</g>
<defs>
<clipPath id="clip0_20306_169">
<rect width="154" height="20" fill="white" transform="translate(2 70)"/>
</clipPath>
</defs>
</svg>
