<svg width="520" height="520" viewBox="0 0 520 520" fill="none" xmlns="http://www.w3.org/2000/svg">
<path d="M183.333 490H132.223V438.889H183.333V490ZM285.556 490H234.444V438.889H285.556V490ZM387.777 490H336.667V438.889H387.777V490ZM413.333 413.333H106.667V106.667H413.333V413.333ZM81.1113 387.777H30V336.667H81.1113V387.777ZM490 387.777H438.889V336.667H490V387.777ZM213.657 183.728V284.466C213.611 289.503 212.817 293.747 211.278 297.198C209.786 300.649 207.594 303.261 204.702 305.033C201.811 306.759 198.289 307.622 194.139 307.622C190.314 307.622 186.933 306.875 183.995 305.383C181.057 303.89 178.748 301.745 177.069 298.947C175.437 296.149 174.597 292.814 174.551 288.943H148.736C148.736 297.758 150.695 305.127 154.612 311.05C158.53 316.973 163.824 321.45 170.493 324.481C177.209 327.466 184.764 328.959 193.159 328.959C202.347 328.959 210.392 327.186 217.295 323.642C224.244 320.051 229.654 314.944 233.524 308.321C237.395 301.652 239.355 293.7 239.401 284.466V183.728H213.657ZM261.649 183.728V327H319.644C330.604 327 339.698 325.297 346.927 321.893C354.156 318.488 359.566 313.848 363.157 307.972C366.748 302.049 368.544 295.379 368.544 287.964C368.544 280.688 367.051 274.485 364.066 269.354C361.082 264.224 357.234 260.26 352.523 257.462C347.86 254.617 342.986 253.055 337.902 252.775V251.376C342.566 250.257 346.787 248.415 350.564 245.85C354.342 243.285 357.35 239.95 359.589 235.846C361.828 231.695 362.947 226.704 362.947 220.874C362.947 213.785 361.222 207.442 357.771 201.846C354.366 196.249 349.212 191.842 342.31 188.624C335.454 185.359 326.849 183.728 316.495 183.728H261.649ZM316.216 263.339C321.579 263.339 326.196 264.341 330.067 266.347C333.938 268.305 336.923 271.011 339.021 274.462C341.12 277.866 342.17 281.691 342.17 285.935C342.17 291.624 340.071 296.289 335.874 299.927C331.723 303.518 324.937 305.313 315.517 305.313H287.604V263.339H316.216ZM81.1113 285.556H30V234.444H81.1113V285.556ZM490 285.556H438.889V234.444H490V285.556ZM313.837 205.134C321.485 205.134 327.245 206.93 331.116 210.521C335.034 214.112 336.993 218.682 336.993 224.232C336.993 228.43 335.943 232.067 333.845 235.146C331.793 238.177 328.971 240.533 325.38 242.212C321.789 243.844 317.754 244.66 313.277 244.66H287.604V205.134H313.837ZM81.1113 183.333H30V132.223H81.1113V183.333ZM490 183.333H438.889V132.223H490V183.333ZM183.333 81.1113H132.223V30H183.333V81.1113ZM285.556 81.1113H234.444V30H285.556V81.1113ZM387.777 81.1113H336.667V30H387.777V81.1113Z" fill="black"/>
</svg>
